<svg xmlns="http://www.w3.org/2000/svg" width="212.996" height="26.344" viewBox="0 0 212.996 26.344">
  <g id="グループ_267" data-name="グループ 267" transform="translate(-474 -444.094)">
    <g id="グループ_276" data-name="グループ 276" transform="translate(474 444.095)">
      <g id="グループ_268" data-name="グループ 268">
        <path id="パス_725" data-name="パス 725" d="M478.286,2086.75c4.162-4.721,5.419-6.257,6.844-9.917h-2.067c-.643,0-.978.028-1.788.084a3.694,3.694,0,0,1,.084.726,1.441,1.441,0,0,1-1.341,1.62c-.67,0-.81-.559-1.034-1.369a11.027,11.027,0,0,0-1.48-3.3v8.214c0,.865.056,4.749.056,5.559,0,.391,0,1.2-2.039,1.2-.81,0-.838-.279-.838-.95,0-.7.056-3.827.056-4.47v-6.089a18.265,18.265,0,0,1-3.939,5.587l-.615-.474a32.143,32.143,0,0,0,4.33-11.482h-1.034a19.244,19.244,0,0,0-2.207.112l-.671-2.347c.81.056,1.676.112,2.822.112h1.313v-3.38c0-1.062,0-1.173-.112-2.766l3.213.391c.2.028.671.112.671.531s-.419.671-1.006.922v4.3h.587l.81-1.285a.432.432,0,0,1,.362-.279c.2,0,.391.224.419.251l1.509,2.011a2.5,2.5,0,0,1,.2.335,32.627,32.627,0,0,0,1.173-5.727l2.878.726c.671.168.81.363.81.643,0,.419-.447.558-1.034.67-.363.894-.587,1.369-.894,2.011h2.4v-2.71a25.339,25.339,0,0,0-.084-2.794l3.353.391c.251.028.7.112.7.531,0,.475-.558.727-1.061.922v3.66h2.206l1.09-1.62c.168-.251.307-.335.447-.335s.251.056.475.279l1.956,2.152c.5.558.5.81.5.922,0,.446-.363.726-.95.726h-5.726v3.687h2.346l1.173-1.76a.583.583,0,0,1,.475-.28.782.782,0,0,1,.475.251l2.263,2.263a1.369,1.369,0,0,1,.447.894c0,.447-.335.726-.894.726h-5.531c1.759,2.85,3.212,4.917,6.956,6.788v.782a3.41,3.41,0,0,0-2.235,2.71,21.857,21.857,0,0,1-5.475-9.526v5.727c0,.782.056,4.275.056,4.973,0,.447,0,1.257-2.012,1.257-.894,0-1.006-.168-1.006-.95,0-.614.056-3.939.056-4.442v-4.5a24.649,24.649,0,0,1-7.906,7.682Zm8.436-12.012v-3.687h-3.576a21.053,21.053,0,0,1-2.319,3.3l-.7-.363a16.632,16.632,0,0,0,.95-2.347.712.712,0,0,1-.363.056H477.5v1.732a9.147,9.147,0,0,1,2.9,1.872l-.224-.671c.587.028,1.537.112,2.822.112Z" transform="translate(-470.184 -2063.227)" fill="#1d1d1d"/>
        <path id="パス_726" data-name="パス 726" d="M522.361,2063.778c.335.028.754.084.754.447,0,.391-.419.586-.894.782,0,.642.028,3.352.056,3.911h4.162l.587-.754c-.5-.112-.587-.224-1.257-1.174a19.762,19.762,0,0,0-2.43-2.626l.307-.7c4.665.308,5.14,2.152,5.14,2.878a1.758,1.758,0,0,1-.419,1.146l2.263,1.9a.954.954,0,0,1,.447.781c0,.5-.559.671-1.034.671h-7.682c.363,5.866,1.565,9.191,2.6,10.951,1.146,1.928,2.458,2.877,2.85,2.877.475,0,.81-.67,1.118-1.312.754-1.564.838-1.732,1.341-2.989l.726.279a37.613,37.613,0,0,0-.615,4.218,3.371,3.371,0,0,0,.419,1.732,2.445,2.445,0,0,1,.335,1.062,1.616,1.616,0,0,1-1.816,1.481c-2.012,0-9.107-2.766-10.029-18.3H507.806a14.087,14.087,0,0,0-1.984.111l-.726-2.346c.7.056,1.592.112,2.794.112h11.286c0-.28-.224-5.392-.224-5.56Zm-8.242,19.89c.894-.139,4.777-.754,5.56-.865l.251.754c-1.956,1.061-5.029,2.234-11.845,4.358-.056.391-.168.978-.67.978-.279,0-.391-.167-.587-.726l-1.229-3.548a51.027,51.027,0,0,0,5.476-.5v-6.648h-2.067a15.035,15.035,0,0,0-1.984.112l-.754-2.347c.726.056,1.565.112,2.822.112h5.084l1.062-1.509c.168-.223.279-.279.419-.279a.82.82,0,0,1,.531.279l2.207,2.207a1,1,0,0,1,.391.754c0,.559-.615.671-1.062.671h-3.6Z" transform="translate(-474.616 -2063.219)" fill="#1d1d1d"/>
        <path id="パス_727" data-name="パス 727" d="M552.923,2072.446l1.034-1.424c.112-.167.224-.307.447-.307a.752.752,0,0,1,.475.224l2.179,2.122a1.25,1.25,0,0,1,.475.811c0,.7-.894.7-1.118.7h-8.353c-.615,0-1.4.056-1.983.112l-.615-1.9a23.227,23.227,0,0,1-6.482,3.66l-.447-.643c2.375-1.9,8.549-6.844,10.895-12.6l3.325.754c.95.223.978.475.978.643,0,.447-.447.531-.67.587a23.253,23.253,0,0,0,12.264,6.984v.781a4.766,4.766,0,0,0-2.458,2.933,27.485,27.485,0,0,1-10.7-10.085,38.691,38.691,0,0,1-6.2,6.593c.335.028,1.173.056,2.178.056ZM542.5,2079.9a15.507,15.507,0,0,0-1.984.112l-.754-2.347c.81.056,1.676.112,2.822.112h15.868l1.284-1.9a.576.576,0,0,1,.447-.279.76.76,0,0,1,.475.223l2.85,2.57a1.139,1.139,0,0,1,.419.81c0,.363-.335.7-1.062.7H551.219a43.638,43.638,0,0,1-4.246,5.2c4.973-.2,5.532-.224,10.365-.531a34.8,34.8,0,0,0-3.017-3.519l.5-.643c2.1.81,7.431,4.051,7.431,7.04a1.777,1.777,0,0,1-1.676,1.956c-.838,0-1-.447-1.564-1.76a12.3,12.3,0,0,0-.894-1.816c-4.079.95-8.856,1.872-14.108,2.6-.168.028-.7.112-.838.112-.056.28-.2.838-.671.838-.307,0-.447-.335-.559-.642l-1.285-3.66c.894.056,1.956.112,4.274.084,1.7-3.575,1.9-3.967,2.262-5.251Z" transform="translate(-478.861 -2063.199)" fill="#1d1d1d"/>
        <path id="パス_728" data-name="パス 728" d="M581.99,2067.474c.168-.2.251-.251.391-.251a.461.461,0,0,1,.419.251l1.62,1.956a1.026,1.026,0,0,1,.335.7c0,.447-.168.5-1.676,1.061a27.915,27.915,0,0,1-2.821,3.967c.977.251,4.19,1.62,4.19,3.771a1.674,1.674,0,0,1-1.481,1.816c-.643,0-.726-.167-1.369-1.732a9.229,9.229,0,0,0-1.452-2.654v9.051c0,.447.056,2.4.056,2.822,0,.922-.754,1.285-2.067,1.285-.838,0-.95-.28-.95-.754,0-.5.056-2.766.056-3.213v-7.291a25.3,25.3,0,0,1-4.051,2.906l-.447-.642c4.777-5.2,6.007-7.4,7.152-9.973h-4a15.8,15.8,0,0,0-1.984.112l-.726-2.347c.866.056,1.7.112,2.822.112h1.257v-1.7c0-.782-.028-1.872-.112-3.3l3.38.391c.474.056.726.223.726.559,0,.419-.278.531-1.089.838v3.213h1.061Zm6.956-.586a26.917,26.917,0,0,0-.14-3.325l3.6.419c.363.056.7.167.7.531,0,.307-.14.5-1.034.866v7.207h1.843l1.034-1.536c.168-.252.279-.335.447-.335.251,0,.391.168.559.279l2.1,2.207c.447.447.447.67.447.81,0,.447-.447.726-1.062.726h-5.363v11.4h2.29l1.2-1.648a.455.455,0,0,1,.419-.308.7.7,0,0,1,.5.28l2.235,2.319a1.325,1.325,0,0,1,.447.81c0,.307-.279.67-1.062.67H584.617a15.419,15.419,0,0,0-1.984.112l-.754-2.347a27.581,27.581,0,0,0,2.822.112h4.247v-11.4H585.79a18.4,18.4,0,0,0-1.984.083l-.754-2.319c.726.028,1.565.084,2.822.084h3.073Z" transform="translate(-483.203 -2063.227)" fill="#1d1d1d"/>
        <path id="パス_729" data-name="パス 729" d="M626.517,2070.228v-3.576a23.39,23.39,0,0,0-.14-3.324l3.744.447c.587.084.894.167.894.531,0,.419-.363.587-1.257,1.034v4.889h4.721l1.368-2.1a.6.6,0,0,1,.447-.279.856.856,0,0,1,.531.251l2.654,2.6a1.447,1.447,0,0,1,.447.893c0,.447-.363.726-.894.726h-9.274v5.42h3.911l1.228-1.9c.112-.112.252-.307.475-.307a.917.917,0,0,1,.5.251l2.514,2.487a1.525,1.525,0,0,1,.447.866c0,.727-.7.727-1.006.727h-8.073v6.4h5.866l1.4-2.067a.582.582,0,0,1,.447-.306.791.791,0,0,1,.5.25l2.682,2.626a1.282,1.282,0,0,1,.419.866c0,.475-.307.726-.866.726H617.83c-1.062,0-1.984.112-2.207.112l-.67-2.347c.894.084,1.732.139,2.822.139h8.744v-6.4h-5.559a17.967,17.967,0,0,0-2.179.112l-.7-2.347c.81.056,1.7.112,2.822.112h5.615v-5.42h-5.81a24.891,24.891,0,0,1-5.029,6.426l-.643-.447a36.555,36.555,0,0,0,5-13.465l3.883,1.062c.335.084.643.251.643.559,0,.5-.447.559-1.285.671-.419,1.062-.754,1.76-1.4,3.1Z" transform="translate(-488.562 -2063.215)" fill="#1d1d1d"/>
        <path id="パス_730" data-name="パス 730" d="M651.268,2080.735a17.583,17.583,0,0,1,.531,3.827c0,1.229-.391,2.822-1.565,2.822a.737.737,0,0,1-.754-.754,24.048,24.048,0,0,1,.671-2.431,22.508,22.508,0,0,0,.363-3.407Zm15.784-7.543.7-1.062a.478.478,0,0,1,.447-.307.688.688,0,0,1,.447.223l1.62,1.648a.938.938,0,0,1,.307.643c0,.363-.2.615-.949,1.257v3.185c0,.5.084,2.682.084,3.1,0,.727-.363,1.257-1.7,1.257-.726,0-.726-.363-.726-.67v-.5h-2.459v.782c0,.474,0,1.229-1.648,1.229-.782,0-.894-.279-.894-.781,0-.531.084-2.878.084-3.325v-5.979c-.475.5-.587.615-.922.95l-.056-.028a1.263,1.263,0,0,1-.754.167h-2.738v1.928h.81l.754-.922a.551.551,0,0,1,.419-.279.932.932,0,0,1,.531.307l1.592,1.565a.835.835,0,0,1,.279.615c0,.279-.084.5-1.09,1.229-.419,8.269-1.006,10.085-5.419,10.113,0-1.453-.615-2.123-2.207-2.738l.056-.782c.2,0,2.794.167,2.85.167.894,0,1.312-.084,1.537-1.648a43.076,43.076,0,0,0,.418-5.5h-4.693c-.168.614-1.117.754-1.62.754-1.062,0-1.09-.363-1.09-.726,0-.475.084-2.6.084-3.018v-8.911c0-.2,0-2.1-.112-3.6l3.073,1.257h4.106l.866-1.09a.564.564,0,0,1,.475-.279.761.761,0,0,1,.447.223l1.984,1.955a1.134,1.134,0,0,1,.363.671c0,.643-.782.643-1.006.643h-3.408v1.872h.419l.615-.838c.168-.223.251-.363.475-.363s.391.2.5.279l1.509,1.648a1.02,1.02,0,0,1,.363.726c0,.7-.782.7-1.062.7h-2.822v1.927h.419l.615-.866c.14-.167.251-.363.475-.363a.77.77,0,0,1,.5.279l1.369,1.593c2.682-5.531,3.045-7.794,3.436-10.141l3.1,1.09c.307.112.615.224.615.587,0,.5-.531.558-1.145.67a18.44,18.44,0,0,1-1.006,2.123h5.279l.726-1.118c.084-.112.224-.335.475-.335a.724.724,0,0,1,.475.252l1.928,1.928a.89.89,0,0,1,.335.671c0,.279-.112.391-1.006,1.257-.028,3.575-.112,13.688-1.173,16.146-1.034,2.459-3.185,2.682-5.084,2.738-.028-1.146-.084-2.235-3.129-3.269l.028-.782c1.676.14,3.939.28,4.274.28,1.117,0,1.62-.28,1.872-2.262.363-2.766.419-6.957.5-13.382h-6.648c-.7,1.2-1.257,1.983-1.592,2.458l1.537.782Zm-14.359,6.9a8.672,8.672,0,0,1,1.62,4.441c0,1.146-.754,1.564-1.145,1.564-.559,0-.615-.587-.615-.922a13.213,13.213,0,0,0-.559-4.721Zm1.592-.447c.559.531,2.179,2.124,2.179,3.744,0,.726-.391,1.2-.894,1.2-.447,0-.475-.167-.81-1.592a7.51,7.51,0,0,0-1.062-2.877Zm-.5-12.739v1.872h1.984v-1.872Zm0,4.023v1.927h1.984v-1.927Zm0,4.05v1.928h1.984v-1.928Zm2.207,4.079c.391.307,2.206,1.732,2.206,2.989,0,.586-.334.922-.7.922-.39,0-.5-.308-.726-1.006a6.279,6.279,0,0,0-1.4-2.431Zm8.827-3.744v4.526h2.459v-4.526Z" transform="translate(-492.945 -2063.219)" fill="#1d1d1d"/>
        <path id="パス_731" data-name="パス 731" d="M695.222,2068.787c.671.391.671.587.671.726,0,.475-.475.447-1.285.419a32.966,32.966,0,0,1-5.531,5.447c1.089-.055,1.341-.055,3.882-.2a11.5,11.5,0,0,0-1.117-1.844l.53-.587c1.229.7,3.548,2.179,3.548,4.135,0,1.229-.7,1.732-1.369,1.732-.559,0-.754-.559-.866-.978-.056-.223-.224-.838-.335-1.4-.838.251-1.089.335-1.62.5v8.771c0,.447.056,2.459.056,2.85,0,1.146-1.647,1.146-1.927,1.146-.782,0-.95-.168-.95-.754,0-.5.084-2.766.084-3.241V2077.5c-1.872.5-2.375.643-3.157.838-.056.475-.2.838-.531.838-.251,0-.363-.2-.475-.615l-.95-3.185c1.509.084,2.319.084,3.408.056a34.939,34.939,0,0,0,5.2-8.3Zm-6.9,11.37c.447.168.587.224.587.475,0,.419-.5.475-.782.531a21.916,21.916,0,0,1-3.52,6.984l-.7-.335a26.783,26.783,0,0,0,1.956-8.548Zm-3.576-12.711a9.623,9.623,0,0,1,2.542,1.034,18.878,18.878,0,0,0,1.7-5.28l3.212,1.257c.754.307.754.559.754.67,0,.531-.643.531-1.256.559a20.4,20.4,0,0,1-3.3,3.52,2.793,2.793,0,0,1,1.257,2.123c0,.781-.5,1.843-1.481,1.843-.587,0-.81-.447-1.509-1.928a10.354,10.354,0,0,0-2.291-3.128Zm7.738,11.314c1.2.782,3.353,2.822,3.353,4.8a1.506,1.506,0,0,1-1.4,1.593c-.587,0-.671-.223-.978-1.565a11.163,11.163,0,0,0-1.536-4.189Zm11.621-13.549.894-1.229a.661.661,0,0,1,.531-.307.865.865,0,0,1,.531.251l2.1,1.9a.823.823,0,0,1,.307.614c0,.335-.168.531-1.006,1.229V2086.3l.643-1.089c.14-.251.224-.391.391-.391.224,0,.335.223.419.363l1.09,1.7a1.4,1.4,0,0,1,.307.81c0,.67-.7.726-.978.726H696.4a15.8,15.8,0,0,0-1.984.112l-.754-2.347c.922.056,1.7.112,2.934.112v-19.554c0-.978-.028-1.9-.112-2.989l3.464,1.453Zm-4.525,2.123v4.553h4.832v-4.553Zm0,6.676v4.721h4.832v-4.721Zm0,6.845v5.447h4.832v-5.447Z" transform="translate(-497.312 -2063.199)" fill="#1d1d1d"/>
      </g>
    </g>
  </g>
</svg>
